<svg width="38" height="55" viewBox="0 0 38 55" fill="none" xmlns="http://www.w3.org/2000/svg">
<g clip-path="url(#clip0_536_584)">
<path d="M18.9651 27.0449V31.7207C22.1904 33.3916 24.3973 36.7581 24.3973 40.6443C24.3973 46.1887 19.9002 50.6858 14.3558 50.6858C8.81131 50.6858 4.31421 46.1887 4.31421 40.6443C4.31421 36.7581 6.5212 33.3916 9.74647 31.7207V27.0449C4.07731 28.9651 0 34.3267 0 40.6443C0 48.5744 6.4256 55 14.3558 55C22.286 55 28.7116 48.5744 28.7116 40.6443C28.7116 34.3267 24.6342 28.9651 18.9651 27.0449Z" fill="white"/>
<path d="M9.74681 31.7207V8.69908C9.74681 6.15129 11.8125 4.08978 14.3561 4.08978C16.9039 4.08978 18.9654 6.15544 18.9654 8.69908V31.7207C20.0045 32.2569 20.9397 32.9717 21.7252 33.8238C22.5897 32.4688 23.0926 30.8562 23.0926 29.1313V8.73649C23.0926 3.91106 19.1816 0 14.3561 0C9.53068 0 5.61963 3.91106 5.61963 8.73649V29.1313C5.61963 30.8603 6.12254 32.4688 6.98704 33.8238C7.77258 32.9717 8.70774 32.261 9.74681 31.7207Z" fill="white"/>
<path d="M14.3558 45.6983C17.1471 45.6983 19.4098 43.4355 19.4098 40.6442C19.4098 37.853 17.1471 35.5902 14.3558 35.5902C11.5645 35.5902 9.30176 37.853 9.30176 40.6442C9.30176 43.4355 11.5645 45.6983 14.3558 45.6983Z" fill="white"/>
<path d="M14.3554 38.3999C13.5407 38.3999 12.8799 37.7391 12.8799 36.9245V9.07741C12.8799 8.26278 13.5407 7.60193 14.3554 7.60193C15.17 7.60193 15.8308 8.26278 15.8308 9.07741V36.9286C15.8308 37.7391 15.17 38.3999 14.3554 38.3999Z" fill="white"/>
<path d="M33.6617 1.56692V9.601C33.6617 10.4655 32.9593 11.1679 32.0947 11.1679C31.2302 11.1679 30.5278 10.4655 30.5278 9.601V1.56692C30.5278 0.702411 31.2302 0 32.0947 0C32.9593 0 33.6617 0.702411 33.6617 1.56692Z" fill="white"/>
<path d="M28.0801 4.01489H36.1142C36.9787 4.01489 37.6811 4.7173 37.6811 5.58181C37.6811 6.44631 36.9787 7.14872 36.1142 7.14872H28.0801C27.2156 7.14872 26.5132 6.44631 26.5132 5.58181C26.5132 4.7173 27.2156 4.01489 28.0801 4.01489Z" fill="white"/>
<path d="M28.0801 13.9485H36.1142C36.9787 13.9485 37.6811 14.6509 37.6811 15.5154C37.6811 16.3799 36.9787 17.0823 36.1142 17.0823H28.0801C27.2156 17.0823 26.5132 16.3799 26.5132 15.5154C26.5132 14.6509 27.2156 13.9485 28.0801 13.9485Z" fill="white"/>
</g>
<defs>
<clipPath id="clip0_536_584">
<rect width="37.6766" height="55" fill="white"/>
</clipPath>
</defs>
</svg>
