<svg width="57" height="57" viewBox="0 0 57 57" fill="none" xmlns="http://www.w3.org/2000/svg">
<path d="M28.4936 40.5126C35.1239 40.5126 40.4989 35.1376 40.4989 28.5073C40.4989 21.8769 35.1239 16.502 28.4936 16.502C21.8632 16.502 16.4883 21.8769 16.4883 28.5073C16.4883 35.1376 21.8632 40.5126 28.4936 40.5126Z" fill="white"/>
<path d="M48.6557 8.34463L48.6268 8.3158C47.863 7.55196 46.6092 7.55196 45.8453 8.3158L38.7257 15.4354C37.9619 16.1992 37.9619 17.4531 38.7257 18.2169L38.7545 18.2458C39.5184 19.0096 40.7722 19.0096 41.5361 18.2458L48.6557 11.1262C49.4339 10.3623 49.4339 9.12288 48.6557 8.34463Z" fill="white"/>
<path d="M18.2611 38.7543L18.2323 38.7255C17.4685 37.9616 16.2146 37.9616 15.4508 38.7255L8.33118 45.8451C7.56734 46.6089 7.56734 47.8628 8.33118 48.6266L8.36001 48.6554C9.12385 49.4193 10.3777 49.4193 11.1416 48.6554L18.2611 41.5358C19.025 40.772 19.025 39.5181 18.2611 38.7543Z" fill="white"/>
<path d="M18.2611 15.4498L11.156 8.33021C10.3921 7.56636 9.13826 7.56636 8.37442 8.33021L8.33118 8.35903C7.56734 9.12287 7.56734 10.3767 8.33118 11.1406L15.4508 18.2602C16.2146 19.024 17.4685 19.024 18.2323 18.2602L18.2611 18.2313C19.0394 17.4675 19.0394 16.2281 18.2611 15.4498Z" fill="white"/>
<path d="M48.6694 45.8595L41.5498 38.7399C40.7859 37.976 39.5321 37.976 38.7682 38.7399L38.7394 38.7687C37.9755 39.5325 37.9755 40.7864 38.7394 41.5502L45.859 48.6698C46.6228 49.4337 47.8767 49.4337 48.6405 48.6698L48.6694 48.641C49.4332 47.8772 49.4332 46.6233 48.6694 45.8595Z" fill="white"/>
<path d="M55.0258 26.5039H44.9662C43.8708 26.5039 42.9917 27.383 42.9917 28.4784V28.5072C42.9917 29.6025 43.8708 30.4817 44.9662 30.4817H55.0258C56.1212 30.4817 57.0003 29.6025 57.0003 28.5072V28.4784C57.0003 27.383 56.1212 26.5039 55.0258 26.5039Z" fill="white"/>
<path d="M12.0341 26.5039H1.97446C0.87914 26.5039 0 27.383 0 28.4784V28.5072C0 29.6025 0.87914 30.4817 1.97446 30.4817H12.0341C13.1295 30.4817 14.0086 29.6025 14.0086 28.5072V28.4784C14.0086 27.383 13.1295 26.5039 12.0341 26.5039Z" fill="white"/>
<path d="M28.5223 0H28.4935C27.3982 0 26.519 0.87914 26.519 1.97446V12.0341C26.519 13.1295 27.3982 14.0086 28.4935 14.0086H28.5223C29.6177 14.0086 30.4968 13.1295 30.4968 12.0341V1.97446C30.4968 0.87914 29.6032 0 28.5223 0Z" fill="white"/>
<path d="M28.5223 42.9915H28.4935C27.3982 42.9915 26.519 43.8706 26.519 44.9659V55.0256C26.519 56.1209 27.3982 57.0001 28.4935 57.0001H28.5223C29.6177 57.0001 30.4968 56.1209 30.4968 55.0256V44.9659C30.4968 43.8706 29.6032 42.9915 28.5223 42.9915Z" fill="white"/>
</svg>
