<svg width="47" height="47" viewBox="0 0 47 47" fill="none" xmlns="http://www.w3.org/2000/svg">
<g clip-path="url(#clip0_536_593)">
<path d="M41.7782 3.55751C41.6133 3.55751 41.4483 3.54626 41.2872 3.52752L24.0698 1.34208C23.7437 1.30085 23.4176 1.30085 23.0914 1.34208L5.70915 3.52752C5.54796 3.54626 5.38302 3.55751 5.22183 3.55751H5.21808C2.83397 3.55751 1.00465 5.67547 1.35327 8.03709L5.17685 33.9362C5.36053 35.1695 6.11775 36.2416 7.22358 36.8226L21.7982 44.4885C22.9452 45.092 24.3135 45.0883 25.4568 44.4773L39.7915 36.8264C40.8861 36.2416 41.6358 35.177 41.8157 33.9512L45.6393 8.04084C45.9916 5.67547 44.1661 3.55751 41.7782 3.55751ZM23.4625 39.0118C14.7658 39.0118 7.71465 31.7658 7.71465 22.8253C7.71465 13.8849 14.7658 6.63886 23.4625 6.63886C32.1593 6.63886 39.2104 13.8887 39.2104 22.8253C39.2104 31.762 32.1593 39.0118 23.4625 39.0118Z" fill="white" stroke="white" stroke-width="2.62402" stroke-miterlimit="10" stroke-linecap="round" stroke-linejoin="round"/>
<path d="M23.4625 10.871C17.0374 10.871 11.8306 16.224 11.8306 22.8253C11.8306 29.4266 17.0374 34.7796 23.4625 34.7796C29.8876 34.7796 35.0944 29.4266 35.0944 22.8253C35.0944 16.224 29.8876 10.871 23.4625 10.871ZM30.2737 17.7497L22.7915 28.6956C22.5028 29.1192 22.0305 29.3478 21.5507 29.3478C21.5245 29.3478 21.4945 29.3478 21.4682 29.3441C21.0446 29.3291 20.6285 29.1342 20.3436 28.7743L16.4526 23.8486C15.939 23.2001 16.0515 22.2555 16.7 21.7419C17.3485 21.2284 18.2932 21.3408 18.8067 21.9893L21.4495 25.3368L27.7959 16.0553C28.2644 15.373 29.1978 15.1969 29.8801 15.6654C30.5623 16.134 30.7385 17.0674 30.2737 17.7497Z" fill="white"/>
</g>
<defs>
<clipPath id="clip0_536_593">
<rect width="47" height="46.2465" fill="white"/>
</clipPath>
</defs>
</svg>
