<svg width="47" height="41" viewBox="0 0 47 41" fill="none" xmlns="http://www.w3.org/2000/svg">
<path d="M20.6 39.0524L4.15772 22.6101C2.74691 21.1993 2.74691 18.912 4.15772 17.5012L20.6 1.06355C22.8733 -1.20969 26.7636 0.402667 26.7636 3.61801V36.4979C26.7636 39.7133 22.8733 41.3256 20.6 39.0524Z" fill="white"/>
<path d="M22.7043 31.1406H3.96528C1.77641 31.1406 0 29.3689 0 27.18V12.936C0 10.7471 1.77641 8.9707 3.96528 8.9707H22.7043C24.8931 8.9707 26.6695 10.7471 26.6695 12.936V27.1754C26.6695 29.3689 24.8931 31.1406 22.7043 31.1406Z" fill="white"/>
<path d="M39.6064 5.08972C40.8063 6.50054 44.8513 11.6048 44.9966 19.2916C45.1513 27.5034 40.7407 33.006 39.6064 34.3372" stroke="white" stroke-width="4" stroke-miterlimit="10" stroke-linecap="round"/>
<path d="M32.4351 7.6864C33.4193 8.84411 36.7519 13.0484 36.869 19.3713C36.9956 26.1301 33.3678 30.6531 32.4351 31.7499" stroke="white" stroke-width="4" stroke-miterlimit="10" stroke-linecap="round"/>
</svg>
