<svg width="55" height="51" viewBox="0 0 55 51" fill="none" xmlns="http://www.w3.org/2000/svg">
<path d="M48.0553 46.8201H6.94061C4.21349 46.8201 2 44.6107 2 41.8795V16.1736C2 13.4465 4.20942 11.233 6.94061 11.233H48.0594C50.7865 11.233 53 13.4424 53 16.1736V41.8836C52.9959 44.6107 50.7865 46.8201 48.0553 46.8201Z" stroke="white" stroke-width="3.61442" stroke-miterlimit="10" stroke-linecap="round"/>
<path d="M37.4197 50.7947H17.5757C16.471 50.7947 15.5742 49.8979 15.5742 48.7932V47.66C15.5742 46.5553 16.471 45.6584 17.5757 45.6584H37.4197C38.5244 45.6584 39.4212 46.5553 39.4212 47.66V48.7932C39.4212 49.8979 38.5244 50.7947 37.4197 50.7947Z" fill="white"/>
<path d="M43.0448 39.1157H11.9499C10.7596 39.1157 9.79346 38.1496 9.79346 36.9593V21.0939C9.79346 19.9036 10.7596 18.9375 11.9499 18.9375H43.0407C44.231 18.9375 45.1971 19.9036 45.1971 21.0939V36.9634C45.1971 38.1496 44.2351 39.1157 43.0448 39.1157Z" stroke="white" stroke-width="3.61442" stroke-miterlimit="10" stroke-linecap="round"/>
<path d="M18.8921 2L27.6971 11.1719" stroke="white" stroke-width="3.61442" stroke-miterlimit="10" stroke-linecap="round"/>
<path d="M36.1034 2.02039L27.2983 11.1923" stroke="white" stroke-width="3.61442" stroke-miterlimit="10" stroke-linecap="round"/>
</svg>
